# xmcd
#
# Track frame offsets: 
#        150
#        17314
#        33026
#        48829
#        68808
#        86805
#        106689
#        122322
#        148087
#
# Disc length: 2206 seconds
#
# Revision: 0
# Processed by: cddbd v1.5.2PL0 Copyright (c) Steve Scherf et al.
# Submitted via: ExactAudioCopy v1.0b6
#
DISCID=62089c09
DTITLE=Susan Santost - Skin and Bones
DYEAR=2016
DGENRE=Blues
TTITLE0=Rattlesnake
TTITLE1=Goin' Down South
TTITLE2=Red Lips
TTITLE3=Sunset's Glaze
TTITLE4=Dusty Road
TTITLE5=Let Your Light Shine
TTITLE6=Skin and Bones
TTITLE7=Stop Drivin'  Me Crazy
TTITLE8=Right On Time
EXTD=
EXTT0=
EXTT1=
EXTT2=
EXTT3=
EXTT4=
EXTT5=
EXTT6=
EXTT7=
EXTT8=
PLAYORDER=
